<?xml version="1.0" encoding="utf-8"?>
<!-- Generator: Adobe Illustrator 27.0.1, SVG Export Plug-In . SVG Version: 6.00 Build 0)  -->
<svg version="1.1" id="Capa_2_00000100362438221305133410000014525252893466106807_"
	 xmlns="http://www.w3.org/2000/svg" xmlns:xlink="http://www.w3.org/1999/xlink" x="0px" y="0px" viewBox="0 0 43.6 43.6"
	 style="enable-background:new 0 0 43.6 43.6;" xml:space="preserve">
<style type="text/css">
	.st0{opacity:1;fill:#F9F9F9;enable-background:new    ;}
</style>
<g id="Pantalla_login_C_Cat">
	<path class="st0" d="M33.7,17.1v-5.2C33.7,5.3,28.4,0,21.8,0S9.9,5.3,9.9,11.9v5.2c-2.1,1-3.6,3.2-3.6,5.8V37
		c0,3.5,2.9,6.4,6.4,6.4h18.3c3.5,0,6.4-2.9,6.4-6.4V22.9C37.3,20.3,35.9,18.1,33.7,17.1z M15,11.9c0-3.7,3-6.7,6.7-6.7
		s6.7,3,6.7,6.7v4.6H15C15,16.5,15,11.9,15,11.9z M32.2,36.5c0,1-0.8,1.8-1.8,1.8H13.2c-1,0-1.8-0.8-1.8-1.8v-13
		c0-1,0.8-1.8,1.8-1.8h17.2c1,0,1.8,0.8,1.8,1.8C32.2,23.5,32.2,36.5,32.2,36.5z"/>
</g>
</svg>
