<svg width="9" height="9" viewBox="0 0 9 9" fill="none" xmlns="http://www.w3.org/2000/svg">
  <path
    d="M4.5 0C6.98535 0 9 2.01465 9 4.5C9 6.98535 6.98535 9 4.5 9C2.01465 9 0 6.98535 0 4.5C0 2.01465 2.01465 0 4.5 0ZM4.5 0.9C3.54522 0.9 2.62955 1.27928 1.95442 1.95442C1.27928 2.62955 0.9 3.54522 0.9 4.5C0.9 5.45478 1.27928 6.37045 1.95442 7.04558C2.62955 7.72072 3.54522 8.1 4.5 8.1C5.45478 8.1 6.37045 7.72072 7.04558 7.04558C7.72072 6.37045 8.1 5.45478 8.1 4.5C8.1 3.54522 7.72072 2.62955 7.04558 1.95442C6.37045 1.27928 5.45478 0.9 4.5 0.9ZM4.5 6.3C4.61935 6.3 4.73381 6.34741 4.8182 6.4318C4.90259 6.51619 4.95 6.63065 4.95 6.75C4.95 6.86935 4.90259 6.98381 4.8182 7.0682C4.73381 7.15259 4.61935 7.2 4.5 7.2C4.38065 7.2 4.26619 7.15259 4.1818 7.0682C4.09741 6.98381 4.05 6.86935 4.05 6.75C4.05 6.63065 4.09741 6.51619 4.1818 6.4318C4.26619 6.34741 4.38065 6.3 4.5 6.3ZM4.5 2.025C4.87903 2.02501 5.24622 2.15701 5.5385 2.39832C5.83079 2.63963 6.02992 2.97519 6.10169 3.34736C6.17346 3.71953 6.11339 4.10507 5.9318 4.43777C5.75022 4.77046 5.45844 5.02954 5.1066 5.1705C5.05475 5.19018 5.00788 5.22106 4.96935 5.26095C4.94955 5.28345 4.9464 5.31225 4.94685 5.34195L4.95 5.4C4.94987 5.5147 4.90595 5.62501 4.82722 5.70842C4.74848 5.79182 4.64087 5.84201 4.52637 5.84873C4.41187 5.85545 4.29913 5.8182 4.21118 5.74458C4.12322 5.67097 4.0667 5.56654 4.05315 5.45265L4.05 5.4V5.2875C4.05 4.76865 4.4685 4.45725 4.7718 4.3353C4.89524 4.28601 5.00292 4.20402 5.08328 4.09814C5.16364 3.99227 5.21364 3.8665 5.22792 3.73435C5.24219 3.6022 5.2202 3.46866 5.1643 3.34806C5.1084 3.22747 5.02071 3.12438 4.91064 3.04986C4.80057 2.97535 4.67229 2.93223 4.53956 2.92512C4.40683 2.91802 4.27467 2.9472 4.15728 3.00954C4.03988 3.07188 3.94169 3.16502 3.87324 3.27896C3.80479 3.3929 3.76866 3.52333 3.76875 3.65625C3.76875 3.7756 3.72134 3.89006 3.63695 3.97445C3.55256 4.05884 3.4381 4.10625 3.31875 4.10625C3.1994 4.10625 3.08494 4.05884 3.00055 3.97445C2.91616 3.89006 2.86875 3.7756 2.86875 3.65625C2.86875 3.22362 3.04061 2.8087 3.34653 2.50278C3.65245 2.19686 4.06737 2.025 4.5 2.025Z"
    fill="#3a3a3a" fill-opacity="0.75" />
</svg>